<?xml version="1.0" encoding="UTF-8" standalone="no"?>
<svg
   xmlns:dc="http://purl.org/dc/elements/1.1/"
   xmlns:cc="http://creativecommons.org/ns#"
   xmlns:rdf="http://www.w3.org/1999/02/22-rdf-syntax-ns#"
   xmlns:svg="http://www.w3.org/2000/svg"
   xmlns="http://www.w3.org/2000/svg"
   xmlns:sodipodi="http://sodipodi.sourceforge.net/DTD/sodipodi-0.dtd"
   xmlns:inkscape="http://www.inkscape.org/namespaces/inkscape"
   width="297mm"
   height="210mm"
   viewBox="0 0 297 210"
   version="1.1"
   id="svg410"
   inkscape:version="1.0 (4035a4fb49, 2020-05-01)"
   sodipodi:docname="name.svg">
  <defs
     id="defs404" />
  <sodipodi:namedview
     id="base"
     pagecolor="#ffffff"
     bordercolor="#666666"
     borderopacity="1.0"
     inkscape:pageopacity="0.0"
     inkscape:pageshadow="2"
     inkscape:zoom="0.35"
     inkscape:cx="309.3787"
     inkscape:cy="414.75168"
     inkscape:document-units="mm"
     inkscape:current-layer="layer1"
     inkscape:document-rotation="0"
     showgrid="false"
     inkscape:window-width="1274"
     inkscape:window-height="729"
     inkscape:window-x="282"
     inkscape:window-y="23"
     inkscape:window-maximized="0" />
  <metadata
     id="metadata407">
    <rdf:RDF>
      <cc:Work
         rdf:about="">
        <dc:format>image/svg+xml</dc:format>
        <dc:type
           rdf:resource="http://purl.org/dc/dcmitype/StillImage" />
        <dc:title />
      </cc:Work>
    </rdf:RDF>
  </metadata>
  <g
     inkscape:label="Layer 1"
     inkscape:groupmode="layer"
     id="layer1">
    <g
       id="g475"
       transform="matrix(1.2647059,0,0,1.5250001,-7.0184598,-14.993038)">
      <rect
         style="fill:none;stroke-width:0.264583"
         id="rect416"
         width="282.72617"
         height="136.07141"
         x="6.0476193"
         y="37.797619" />
      <g
         id="g473">
        <path
           id="path471"
           d="m 13.109,89.5114 c 1.185,0.1575 2.115,-1.0125 1.5,-1.575 -1.035,-0.9525 -3.78,-0.285 -3.5475,1.575 0.9525,7.605 12.3675,6.0525 19.68,0.6525 8.6475,-6.39 21.217412,-30.183211 24.77688,-39.061251 0,0 -3.14688,12.901251 -18.66438,20.146251 -0.4425,0.21 -18.39,6.975 -9.855,-10.2525 1.5825,-3.21 11.28,-14.91 26.82,-17.67 0,0 20.8275,-3.7875 23.0325,8.91 0,0 1.425,13.8075 -12.54,19.095 0.375,-0.075 -9.45,3.585 -10.4175,0.315 -0.2175,-0.75 4.41,-3.2175 9.7875,-0.63 0,0 8.4375,7.965 -5.2875,19.875 -5.2275,4.5375 -15.465,5.0025 -16.2525,1.11 -1.095,-5.445 16.2525,-1.11 24.579885,-6.767793 C 72.876535,82.432712 78.6965,73.9189 80.3465,70.7989 c 2.46,-4.68 -2.19,-4.38 -2.37,-0.9 -0.03,4.05 8.28,4.38 13.74,5.58 1.05,0.27 -17.19,12.45 -14.73,17.49 0,0 1.05,3.78 7.71,0.54 2.31,-1.14 4.93367,-6.865213 12.534556,-13.027492 L 109.267,71.4589 c 0,0 -11.9705,11.61 -15.3605,19.38 0,0 -2.52,6.81 7.2905,3.18 0,0 5.37,-1.02 14.13,-10.02 5.76,-5.94 4.89,-5.28 11.58,-12.39 -6.63,6.87 -33.2105,54.4801 -50.5205,52.1101 -7.02,-0.99 4.62,-12.27 22.95,-18.03 6.5705,-2.07 17.0705,-7.3501 23.1905,-13.9201 6.27476,-6.44684 3.15989,-3.298363 9.09,-10.352048 0,0 7.71,-9.867952 10.23,-10.317952 1.47,-0.24 4.71,0.54 -1.23,8.58 l -9.45,14.01 c 0.18,0.81 11.31,-11.13 17.43,-17.4 5.58,-5.67 13.35,-8.22 11.67,-1.71 -1.98,6.78 -9.09,12.81 -13.62,19.2 -0.09,-0.24 12.3,-13.17 19.02,-18.69 11.7,-9.57 15.03,-1.65 4.74,7.32 -1.29,1.29 -2.67,2.73 -3.9,4.14 -7.05,8.25 -1.59,14.1225 4.41,10.6425 0,0 5.11092,-1.59617 13.03772,-9.465718 0,0 7.57228,-4.926782 11.53228,-7.026782 3.69,-1.95 8.34,-4.53 8.1,-7.89 0,0 -0.51,-4.23 -7.8,-0.81 -2.37,1.11 -11.7,7.53 -13.41,15.42 0,0 -1.68,7.53 6.36,7.8 0.45,0 5.82,-0.15 11.97,-4.95 0,0 2.65518,-3.001607 7.25708,-8.296548 3.41697,-4.00494 7.05292,-8.053452 8.70292,-11.173452 2.46,-4.68 -2.19,-4.38 -2.37,-0.9 -0.03,4.05 8.28,4.38 13.74,5.58 1.05,0.27 -17.19,12.45 -14.73,17.49 0,0 1.05,3.78 7.71,0.54 2.31,-1.14 7.74,-5.6625 13.47,-12.2925"
           style="fill:none;stroke:#000000;stroke-width:1.5;stroke-linecap:round;stroke-linejoin:round"
           sodipodi:nodetypes="cccccccccccccccccccccccccccccccccccccccccccccccccccccc" />
      </g>
    </g>
  </g>
</svg>
